<?xml version="1.0" encoding="utf-8"?>
<!-- Generator: Adobe Illustrator 24.1.2, SVG Export Plug-In . SVG Version: 6.00 Build 0)  -->
<svg version="1.1" id="Layer_1" xmlns="http://www.w3.org/2000/svg" xmlns:xlink="http://www.w3.org/1999/xlink" x="0px" y="0px"
	 viewBox="0 0 512 512" style="enable-background:new 0 0 512 512;" xml:space="preserve">
<style type="text/css">
	.st0{fill-rule:evenodd;clip-rule:evenodd;fill:#B6BCCF;stroke:#666666;stroke-width:0.25;stroke-miterlimit:10;}
	.st1{fill-rule:evenodd;clip-rule:evenodd;fill:#FFFFFF;stroke:#666666;stroke-width:0.25;stroke-miterlimit:10;}
	.st2{fill-rule:evenodd;clip-rule:evenodd;fill:#EB5E28;stroke:#666666;stroke-width:0.25;stroke-miterlimit:10;}
	.st3{fill-rule:evenodd;clip-rule:evenodd;fill:#8690AF;stroke:#666666;stroke-width:0.25;stroke-miterlimit:10;}
	.st4{fill-rule:evenodd;clip-rule:evenodd;fill:#FF5D7D;stroke:#666666;stroke-width:0.25;stroke-miterlimit:10;}
	.st5{fill:#303030;stroke:#000000;stroke-width:0.25;stroke-miterlimit:10;}
	.st6{stroke:#666666;stroke-width:0.25;stroke-miterlimit:10;}
	.st7{fill:#666666;stroke:#000000;stroke-width:0.25;stroke-miterlimit:10;}
</style>
<g>
	<g>
		<path class="st0" d="M151,178.7v-28.2c0-5.2-4.2-9.4-9.4-9.4H85.2c-5.2,0-9.4,4.2-9.4,9.4v28.2H151z"/>
		<path class="st1" d="M151,178.7H75.8H38.2c-10.3,0-18.8,8.5-18.8,18.8v56.4h151.4c19-23,47.6-37.6,79.8-37.6s60.8,14.6,79.8,37.6
			h52.8c0-13,10.5-23.5,23.5-23.5s23.5,10.5,23.5,23.5h51.7v-56.4c0-10.3-8.5-18.8-18.8-18.8h-56.4H369L151,178.7L151,178.7z"/>
		<path class="st2" d="M170.9,253.9H19.4v188c0,10.3,8.5,18.8,18.8,18.8H463c10.3,0,18.8-8.5,18.8-18.8v-188h-51.7
			c0,13-10.5,23.5-23.5,23.5c-13,0-23.5-10.5-23.5-23.5h-52.8c14.8,17.9,23.6,40.8,23.6,65.8c0,57.1-46.3,103.4-103.4,103.4
			s-103.4-46.3-103.4-103.4C147.2,294.7,156.1,271.8,170.9,253.9z"/>
		<path class="st0" d="M170.9,253.9c-14.8,17.9-23.6,40.8-23.6,65.8c0,57.1,46.3,103.4,103.4,103.4S354,376.8,354,319.7
			c0-25-8.9-47.9-23.6-65.8c-19-23-47.6-37.6-79.8-37.6S189.8,231,170.9,253.9z M184.8,319.7c0-36.3,29.5-65.8,65.8-65.8
			s65.8,29.5,65.8,65.8s-29.5,65.8-65.8,65.8S184.8,356,184.8,319.7z"/>
		<ellipse class="st3" cx="250.7" cy="319.7" rx="65.8" ry="65.8"/>
		<ellipse class="st4" cx="406.7" cy="254.1" rx="23.5" ry="23.5"/>
		<path class="st0" d="M369,141.1h37.6v37.6H369V141.1z"/>
		<path class="st1" d="M369,141.1h37.6h37.6c10.3,0,18.8-8.5,18.8-18.8V47.1c0-10.3-8.5-18.8-18.8-18.8H331.5
			c-10.3,0-18.8,8.5-18.8,18.8v75.2c0,10.3,8.5,18.8,18.8,18.8L369,141.1L369,141.1z M425.4,103.5h-75.2V65.9h75.2V103.5z"/>
	</g>
	<g>
		<path class="st5" d="M463,169.3h-47v-18.8h28.2c15.5,0,28.2-12.6,28.2-28.2V47.1c0-15.5-12.6-28.2-28.2-28.2H331.5
			c-15.5,0-28.2,12.6-28.2,28.2v75.2c0,15.5,12.6,28.2,28.2,28.2h28.2v18.8H160.4v-18.8c0-10.4-8.4-18.8-18.8-18.8H85.2
			c-10.4,0-18.8,8.4-18.8,18.8v18.8H38.2C22.7,169.3,10,182,10,197.5v244.4c0,15.5,12.6,28.2,28.2,28.2H463
			c15.5,0,28.2-12.6,28.2-28.2V197.5C491.2,182,478.6,169.3,463,169.3z M331.5,131.7c-5.2,0-9.4-4.2-9.4-9.4V47.1
			c0-5.2,4.2-9.4,9.4-9.4h112.8c5.2,0,9.4,4.2,9.4,9.4v75.2c0,5.2-4.2,9.4-9.4,9.4H331.5z M378.4,150.5h18.8v18.8h-18.8L378.4,150.5
			L378.4,150.5z M85.2,150.5h56.4v18.8H85.2L85.2,150.5z M38.2,188.1H463c5.2,0,9.4,4.2,9.4,9.4v47h-34.3
			c-4.1-13.6-16.6-23.5-31.5-23.5s-27.5,9.9-31.5,23.5h-40.5c-20.7-23.1-50.7-37.6-84-37.6s-63.3,14.5-84,37.6H28.8v-47
			C28.8,192.3,33,188.1,38.2,188.1z M420.7,253.9c0,7.8-6.3,14.1-14.1,14.1c-7.8,0-14.1-6.3-14.1-14.1s6.3-14.1,14.1-14.1
			C414.4,239.8,420.7,246.1,420.7,253.9z M250.6,225.7c51.8,0,94,42.2,94,94s-42.2,94-94,94s-94-42.2-94-94S198.8,225.7,250.6,225.7
			z M463,451.3H38.2c-5.2,0-9.4-4.2-9.4-9.4V263.3H153c-9.6,16.6-15.1,35.9-15.1,56.4c0,62.2,50.6,112.8,112.8,112.8
			s112.8-50.6,112.8-112.8c0-20.5-5.5-39.8-15.1-56.4h26.9c4.1,13.6,16.6,23.5,31.5,23.5c14.9,0,27.5-9.9,31.5-23.5h34.3v178.6
			C472.4,447.1,468.2,451.3,463,451.3L463,451.3z"/>
		<path class="st6" d="M425.4,56.5h-75.2c-5.2,0-9.4,4.2-9.4,9.4v37.6c0,5.2,4.2,9.4,9.4,9.4h75.2c5.2,0,9.4-4.2,9.4-9.4V65.9
			C434.8,60.8,430.6,56.5,425.4,56.5z M416,94.1h-56.4V75.3H416V94.1z"/>
		<path class="st6" d="M250.6,394.9c41.5,0,75.2-33.7,75.2-75.2c0-23.5-10.7-45.3-29.4-59.6c-4.1-3.2-10-2.4-13.2,1.7
			c-3.2,4.1-2.4,10,1.7,13.2c14,10.8,22.1,27.1,22.1,44.7c0,31.1-25.3,56.4-56.4,56.4s-56.4-25.3-56.4-56.4c0-17.7,8-34,22.1-44.7
			c4.1-3.2,4.9-9.1,1.7-13.2c-3.2-4.1-9.1-4.9-13.2-1.7c-18.7,14.4-29.4,36.1-29.4,59.6C175.4,361.2,209.2,394.9,250.6,394.9z"/>
		<path class="st7" d="M250.6,263.3c5.2,0,9.4-4.2,9.4-9.4c0-5.2-4.2-9.4-9.4-9.4h0c-5.2,0-9.4,4.2-9.4,9.4
			C241.2,259.1,245.4,263.3,250.6,263.3z"/>
	</g>
</g>
</svg>
